<svg width="155" height="138" viewBox="0 0 155 138" fill="none" xmlns="http://www.w3.org/2000/svg">
<g filter="url(#filter0_d_3_83)">
<path d="M20 36C20 24.9543 28.9543 16 40 16H115C126.046 16 135 24.9543 135 36V114L131.742 108.218C129.084 103.5 124.089 100.581 118.674 100.581H40C28.9543 100.581 20 91.6266 20 80.5809V36Z" fill="white"/>
</g>
<path d="M56.7472 35.8182L52.4006 62H46.0852L49.4602 41.7244H49.3068L42.8509 45.304L43.7457 39.8324L50.8793 35.8182H56.7472ZM68.9272 62.6392C66.6346 62.6392 64.7468 62.098 63.2638 61.0156C61.7809 59.9247 60.7624 58.3608 60.2085 56.3239C59.6545 54.2784 59.6246 51.8196 60.119 48.9474C60.6048 46.0753 61.4613 43.6378 62.6886 41.6349C63.9158 39.6236 65.4414 38.0937 67.2653 37.0455C69.0891 35.9886 71.1388 35.4602 73.4144 35.4602C75.6985 35.4602 77.5778 35.9886 79.0522 37.0455C80.5352 38.0937 81.5579 39.6236 82.1204 41.6349C82.6829 43.6378 82.7255 46.0753 82.2482 48.9474C81.771 51.8196 80.9144 54.2784 79.6786 56.3239C78.4514 58.3693 76.9215 59.9332 75.0891 61.0156C73.2653 62.098 71.2113 62.6392 68.9272 62.6392ZM69.7965 57.4616C71.1602 57.4616 72.3704 56.7628 73.4272 55.3651C74.484 53.9673 75.2553 51.8281 75.7411 48.9474C76.065 47.0639 76.1374 45.5043 75.9585 44.2685C75.788 43.0327 75.4087 42.1122 74.8207 41.5071C74.2411 40.902 73.4996 40.5994 72.5962 40.5994C71.2326 40.5994 70.0138 41.2855 68.94 42.6577C67.8661 44.0213 67.0906 46.1179 66.6133 48.9474C66.2979 50.8736 66.2298 52.4673 66.4087 53.7287C66.5877 54.9815 66.9712 55.919 67.5593 56.5412C68.1474 57.1548 68.8931 57.4616 69.7965 57.4616ZM99.1935 57.0909L99.4492 55.7102C99.6452 54.6364 100.05 53.6435 100.664 52.7315C101.277 51.8196 102.07 51.0866 103.042 50.5327C104.013 49.9787 105.134 49.7017 106.404 49.7017C107.716 49.7017 108.777 49.9787 109.587 50.5327C110.397 51.0781 110.955 51.8068 111.262 52.7188C111.577 53.6222 111.628 54.6193 111.415 55.7102L111.159 57.0909C110.963 58.1562 110.559 59.1491 109.945 60.0696C109.34 60.9815 108.547 61.7145 107.567 62.2685C106.587 62.8224 105.453 63.0994 104.167 63.0994C102.88 63.0994 101.831 62.8224 101.022 62.2685C100.221 61.7145 99.6623 60.9815 99.3469 60.0696C99.0401 59.1491 98.989 58.1562 99.1935 57.0909ZM103.527 55.7102L103.272 57.0909C103.169 57.6278 103.212 58.152 103.4 58.6634C103.596 59.1662 104.051 59.4176 104.767 59.4176C105.517 59.4176 106.059 59.1705 106.391 58.6761C106.723 58.1818 106.941 57.6534 107.043 57.0909L107.299 55.7102C107.401 55.1392 107.371 54.6023 107.209 54.0994C107.047 53.5881 106.578 53.3324 105.803 53.3324C105.087 53.3324 104.554 53.5881 104.205 54.0994C103.855 54.6023 103.63 55.1392 103.527 55.7102ZM88.1225 42.108L88.3271 40.7273C88.489 39.6278 88.881 38.6264 89.5032 37.723C90.1254 36.8196 90.9308 36.0952 91.9194 35.5497C92.908 34.9957 94.033 34.7188 95.2944 34.7188C96.5984 34.7188 97.6467 34.9957 98.4393 35.5497C99.2319 36.0952 99.7816 36.8196 100.088 37.723C100.395 38.6264 100.468 39.6278 100.306 40.7273L100.101 42.108C99.9393 43.1989 99.5515 44.196 98.9379 45.0994C98.3242 46.0028 97.5188 46.723 96.5217 47.2599C95.533 47.7969 94.3952 48.0653 93.1083 48.0653C91.8129 48.0653 90.7688 47.7969 89.9762 47.2599C89.1921 46.7145 88.6467 45.9901 88.3398 45.0866C88.0415 44.1747 87.9691 43.1818 88.1225 42.108ZM92.4435 40.7273L92.239 42.108C92.1538 42.679 92.2006 43.2116 92.3796 43.706C92.5586 44.1918 93.0018 44.4347 93.7092 44.4347C94.4506 44.4347 94.9918 44.1918 95.3327 43.706C95.6737 43.2116 95.8867 42.679 95.9719 42.108L96.1765 40.7273C96.2617 40.1562 96.2276 39.6193 96.0742 39.1165C95.9208 38.6051 95.4606 38.3494 94.6935 38.3494C93.9691 38.3494 93.4322 38.6094 93.0827 39.1293C92.7418 39.6491 92.5288 40.1818 92.4435 40.7273ZM86.6779 62L109.025 35.8182H112.706L90.3597 62H86.6779Z" fill="url(#paint0_linear_3_83)"/>
<path d="M56.7472 35.8182L52.4006 62H46.0852L49.4602 41.7244H49.3068L42.8509 45.304L43.7457 39.8324L50.8793 35.8182H56.7472ZM68.9272 62.6392C66.6346 62.6392 64.7468 62.098 63.2638 61.0156C61.7809 59.9247 60.7624 58.3608 60.2085 56.3239C59.6545 54.2784 59.6246 51.8196 60.119 48.9474C60.6048 46.0753 61.4613 43.6378 62.6886 41.6349C63.9158 39.6236 65.4414 38.0937 67.2653 37.0455C69.0891 35.9886 71.1388 35.4602 73.4144 35.4602C75.6985 35.4602 77.5778 35.9886 79.0522 37.0455C80.5352 38.0937 81.5579 39.6236 82.1204 41.6349C82.6829 43.6378 82.7255 46.0753 82.2482 48.9474C81.771 51.8196 80.9144 54.2784 79.6786 56.3239C78.4514 58.3693 76.9215 59.9332 75.0891 61.0156C73.2653 62.098 71.2113 62.6392 68.9272 62.6392ZM69.7965 57.4616C71.1602 57.4616 72.3704 56.7628 73.4272 55.3651C74.484 53.9673 75.2553 51.8281 75.7411 48.9474C76.065 47.0639 76.1374 45.5043 75.9585 44.2685C75.788 43.0327 75.4087 42.1122 74.8207 41.5071C74.2411 40.902 73.4996 40.5994 72.5962 40.5994C71.2326 40.5994 70.0138 41.2855 68.94 42.6577C67.8661 44.0213 67.0906 46.1179 66.6133 48.9474C66.2979 50.8736 66.2298 52.4673 66.4087 53.7287C66.5877 54.9815 66.9712 55.919 67.5593 56.5412C68.1474 57.1548 68.8931 57.4616 69.7965 57.4616ZM99.1935 57.0909L99.4492 55.7102C99.6452 54.6364 100.05 53.6435 100.664 52.7315C101.277 51.8196 102.07 51.0866 103.042 50.5327C104.013 49.9787 105.134 49.7017 106.404 49.7017C107.716 49.7017 108.777 49.9787 109.587 50.5327C110.397 51.0781 110.955 51.8068 111.262 52.7188C111.577 53.6222 111.628 54.6193 111.415 55.7102L111.159 57.0909C110.963 58.1562 110.559 59.1491 109.945 60.0696C109.34 60.9815 108.547 61.7145 107.567 62.2685C106.587 62.8224 105.453 63.0994 104.167 63.0994C102.88 63.0994 101.831 62.8224 101.022 62.2685C100.221 61.7145 99.6623 60.9815 99.3469 60.0696C99.0401 59.1491 98.989 58.1562 99.1935 57.0909ZM103.527 55.7102L103.272 57.0909C103.169 57.6278 103.212 58.152 103.4 58.6634C103.596 59.1662 104.051 59.4176 104.767 59.4176C105.517 59.4176 106.059 59.1705 106.391 58.6761C106.723 58.1818 106.941 57.6534 107.043 57.0909L107.299 55.7102C107.401 55.1392 107.371 54.6023 107.209 54.0994C107.047 53.5881 106.578 53.3324 105.803 53.3324C105.087 53.3324 104.554 53.5881 104.205 54.0994C103.855 54.6023 103.63 55.1392 103.527 55.7102ZM88.1225 42.108L88.3271 40.7273C88.489 39.6278 88.881 38.6264 89.5032 37.723C90.1254 36.8196 90.9308 36.0952 91.9194 35.5497C92.908 34.9957 94.033 34.7188 95.2944 34.7188C96.5984 34.7188 97.6467 34.9957 98.4393 35.5497C99.2319 36.0952 99.7816 36.8196 100.088 37.723C100.395 38.6264 100.468 39.6278 100.306 40.7273L100.101 42.108C99.9393 43.1989 99.5515 44.196 98.9379 45.0994C98.3242 46.0028 97.5188 46.723 96.5217 47.2599C95.533 47.7969 94.3952 48.0653 93.1083 48.0653C91.8129 48.0653 90.7688 47.7969 89.9762 47.2599C89.1921 46.7145 88.6467 45.9901 88.3398 45.0866C88.0415 44.1747 87.9691 43.1818 88.1225 42.108ZM92.4435 40.7273L92.239 42.108C92.1538 42.679 92.2006 43.2116 92.3796 43.706C92.5586 44.1918 93.0018 44.4347 93.7092 44.4347C94.4506 44.4347 94.9918 44.1918 95.3327 43.706C95.6737 43.2116 95.8867 42.679 95.9719 42.108L96.1765 40.7273C96.2617 40.1562 96.2276 39.6193 96.0742 39.1165C95.9208 38.6051 95.4606 38.3494 94.6935 38.3494C93.9691 38.3494 93.4322 38.6094 93.0827 39.1293C92.7418 39.6491 92.5288 40.1818 92.4435 40.7273ZM86.6779 62L109.025 35.8182H112.706L90.3597 62H86.6779Z" fill="url(#paint1_linear_3_83)"/>
<path d="M49.592 74.5207H47.757C47.7047 74.2198 47.6082 73.9532 47.4675 73.721C47.3269 73.4854 47.1519 73.2859 46.9425 73.1224C46.7332 72.9588 46.4944 72.8362 46.2262 72.7544C45.9613 72.6693 45.6751 72.6268 45.3676 72.6268C44.8213 72.6268 44.3372 72.7642 43.9153 73.039C43.4933 73.3105 43.163 73.7095 42.9242 74.2361C42.6854 74.7595 42.566 75.3989 42.566 76.1545C42.566 76.9232 42.6854 77.5708 42.9242 78.0975C43.1663 78.6208 43.4966 79.0166 43.9153 79.2848C44.3372 79.5497 44.8197 79.6822 45.3627 79.6822C45.6636 79.6822 45.9449 79.643 46.2066 79.5645C46.4715 79.4827 46.7087 79.3633 46.918 79.2063C47.1306 79.0493 47.3089 78.8563 47.4528 78.6273C47.6 78.3984 47.7014 78.1367 47.757 77.8423L49.592 77.8521C49.5233 78.3297 49.3745 78.7778 49.1455 79.1965C48.9198 79.6152 48.6238 79.9848 48.2575 80.3053C47.8911 80.6226 47.4626 80.8712 46.972 81.0511C46.4813 81.2277 45.9367 81.316 45.3382 81.316C44.455 81.316 43.6667 81.1116 42.9733 80.7027C42.2798 80.2939 41.7336 79.7035 41.3345 78.9315C40.9355 78.1596 40.736 77.2339 40.736 76.1545C40.736 75.0718 40.9371 74.1462 41.3394 73.3775C41.7418 72.6056 42.2896 72.0152 42.9831 71.6063C43.6765 71.1974 44.4615 70.993 45.3382 70.993C45.8975 70.993 46.4176 71.0715 46.8984 71.2285C47.3792 71.3855 47.8077 71.6161 48.1839 71.9203C48.56 72.2212 48.8691 72.5908 49.1112 73.0292C49.3565 73.4642 49.5168 73.9614 49.592 74.5207ZM51.2589 81.1787V71.1304H53.0792V75.3842H57.7354V71.1304H59.5605V81.1787H57.7354V76.9101H53.0792V81.1787H51.2589ZM61.5403 81.1787V71.1304H68.0756V72.6563H63.3605V75.3842H67.737V76.9101H63.3605V79.6528H68.1148V81.1787H61.5403ZM76.6642 74.3392C76.5825 74.0742 76.4696 73.8371 76.3257 73.6277C76.185 73.4151 76.0149 73.2336 75.8154 73.0831C75.6192 72.9327 75.3935 72.8198 75.1383 72.7446C74.8832 72.6661 74.6052 72.6268 74.3043 72.6268C73.7645 72.6268 73.2837 72.7626 72.8618 73.0341C72.4398 73.3055 72.1078 73.7046 71.8658 74.2312C71.627 74.7546 71.5076 75.3924 71.5076 76.1447C71.5076 76.9036 71.627 77.5463 71.8658 78.0729C72.1046 78.5995 72.4366 79.0002 72.8618 79.275C73.287 79.5465 73.7809 79.6822 74.3435 79.6822C74.8538 79.6822 75.2953 79.5841 75.6682 79.3878C76.0444 79.1916 76.3339 78.9135 76.5367 78.5537C76.7395 78.1907 76.8409 77.7655 76.8409 77.2781L77.253 77.3419H74.525V75.919H78.6022V77.126C78.6022 77.9862 78.4191 78.7304 78.0527 79.3584C77.6864 79.9864 77.1827 80.4705 76.5416 80.8107C75.9005 81.1476 75.1645 81.316 74.3337 81.316C73.408 81.316 72.5952 81.1083 71.8952 80.6929C71.1985 80.2743 70.6539 79.6806 70.2614 78.9119C69.8721 78.14 69.6775 77.2241 69.6775 76.1643C69.6775 75.3531 69.792 74.6286 70.021 73.9908C70.2532 73.353 70.577 72.8116 70.9924 72.3668C71.4078 71.9187 71.8952 71.5785 72.4545 71.3463C73.0139 71.1108 73.6223 70.993 74.2797 70.993C74.8358 70.993 75.3542 71.0748 75.835 71.2383C76.3159 71.3986 76.7427 71.6276 77.1156 71.9252C77.4918 72.2229 77.8009 72.5761 78.0429 72.985C78.285 73.3939 78.4436 73.8452 78.5188 74.3392H76.6642ZM82.1827 71.1304V81.1787H80.3624V71.1304H82.1827ZM84.1538 81.1787V71.1304H87.9219C88.6939 71.1304 89.3415 71.2645 89.8649 71.5327C90.3915 71.8009 90.7889 72.1771 91.0571 72.6612C91.3286 73.142 91.4644 73.703 91.4644 74.3441C91.4644 74.9884 91.327 75.5478 91.0522 76.022C90.7807 76.4931 90.38 76.8578 89.8501 77.1162C89.3203 77.3713 88.6693 77.4989 87.8974 77.4989H85.2136V75.9877H87.6521C88.1035 75.9877 88.4731 75.9256 88.7609 75.8013C89.0488 75.6737 89.2614 75.4889 89.3988 75.2468C89.5394 75.0015 89.6097 74.7006 89.6097 74.3441C89.6097 73.9875 89.5394 73.6833 89.3988 73.4315C89.2581 73.1763 89.0439 72.9834 88.756 72.8525C88.4682 72.7184 88.0969 72.6514 87.6423 72.6514H85.9741V81.1787H84.1538ZM89.3448 76.6255L91.8323 81.1787H89.8011L87.3577 76.6255H89.3448ZM93.1399 71.1304H95.3674L98.3505 78.4115H98.4682L101.451 71.1304H103.679V81.1787H101.932V74.2754H101.839L99.0619 81.1492H97.7568L94.9798 74.2607H94.8866V81.1787H93.1399V71.1304ZM106.951 81.1787H105.008L108.546 71.1304H110.793L114.335 81.1787H112.393L109.709 73.1911H109.63L106.951 81.1787ZM107.015 77.2388H112.314V78.7009H107.015V77.2388Z" fill="url(#paint2_linear_3_83)"/>
<path d="M49.592 74.5207H47.757C47.7047 74.2198 47.6082 73.9532 47.4675 73.721C47.3269 73.4854 47.1519 73.2859 46.9425 73.1224C46.7332 72.9588 46.4944 72.8362 46.2262 72.7544C45.9613 72.6693 45.6751 72.6268 45.3676 72.6268C44.8213 72.6268 44.3372 72.7642 43.9153 73.039C43.4933 73.3105 43.163 73.7095 42.9242 74.2361C42.6854 74.7595 42.566 75.3989 42.566 76.1545C42.566 76.9232 42.6854 77.5708 42.9242 78.0975C43.1663 78.6208 43.4966 79.0166 43.9153 79.2848C44.3372 79.5497 44.8197 79.6822 45.3627 79.6822C45.6636 79.6822 45.9449 79.643 46.2066 79.5645C46.4715 79.4827 46.7087 79.3633 46.918 79.2063C47.1306 79.0493 47.3089 78.8563 47.4528 78.6273C47.6 78.3984 47.7014 78.1367 47.757 77.8423L49.592 77.8521C49.5233 78.3297 49.3745 78.7778 49.1455 79.1965C48.9198 79.6152 48.6238 79.9848 48.2575 80.3053C47.8911 80.6226 47.4626 80.8712 46.972 81.0511C46.4813 81.2277 45.9367 81.316 45.3382 81.316C44.455 81.316 43.6667 81.1116 42.9733 80.7027C42.2798 80.2939 41.7336 79.7035 41.3345 78.9315C40.9355 78.1596 40.736 77.2339 40.736 76.1545C40.736 75.0718 40.9371 74.1462 41.3394 73.3775C41.7418 72.6056 42.2896 72.0152 42.9831 71.6063C43.6765 71.1974 44.4615 70.993 45.3382 70.993C45.8975 70.993 46.4176 71.0715 46.8984 71.2285C47.3792 71.3855 47.8077 71.6161 48.1839 71.9203C48.56 72.2212 48.8691 72.5908 49.1112 73.0292C49.3565 73.4642 49.5168 73.9614 49.592 74.5207ZM51.2589 81.1787V71.1304H53.0792V75.3842H57.7354V71.1304H59.5605V81.1787H57.7354V76.9101H53.0792V81.1787H51.2589ZM61.5403 81.1787V71.1304H68.0756V72.6563H63.3605V75.3842H67.737V76.9101H63.3605V79.6528H68.1148V81.1787H61.5403ZM76.6642 74.3392C76.5825 74.0742 76.4696 73.8371 76.3257 73.6277C76.185 73.4151 76.0149 73.2336 75.8154 73.0831C75.6192 72.9327 75.3935 72.8198 75.1383 72.7446C74.8832 72.6661 74.6052 72.6268 74.3043 72.6268C73.7645 72.6268 73.2837 72.7626 72.8618 73.0341C72.4398 73.3055 72.1078 73.7046 71.8658 74.2312C71.627 74.7546 71.5076 75.3924 71.5076 76.1447C71.5076 76.9036 71.627 77.5463 71.8658 78.0729C72.1046 78.5995 72.4366 79.0002 72.8618 79.275C73.287 79.5465 73.7809 79.6822 74.3435 79.6822C74.8538 79.6822 75.2953 79.5841 75.6682 79.3878C76.0444 79.1916 76.3339 78.9135 76.5367 78.5537C76.7395 78.1907 76.8409 77.7655 76.8409 77.2781L77.253 77.3419H74.525V75.919H78.6022V77.126C78.6022 77.9862 78.4191 78.7304 78.0527 79.3584C77.6864 79.9864 77.1827 80.4705 76.5416 80.8107C75.9005 81.1476 75.1645 81.316 74.3337 81.316C73.408 81.316 72.5952 81.1083 71.8952 80.6929C71.1985 80.2743 70.6539 79.6806 70.2614 78.9119C69.8721 78.14 69.6775 77.2241 69.6775 76.1643C69.6775 75.3531 69.792 74.6286 70.021 73.9908C70.2532 73.353 70.577 72.8116 70.9924 72.3668C71.4078 71.9187 71.8952 71.5785 72.4545 71.3463C73.0139 71.1108 73.6223 70.993 74.2797 70.993C74.8358 70.993 75.3542 71.0748 75.835 71.2383C76.3159 71.3986 76.7427 71.6276 77.1156 71.9252C77.4918 72.2229 77.8009 72.5761 78.0429 72.985C78.285 73.3939 78.4436 73.8452 78.5188 74.3392H76.6642ZM82.1827 71.1304V81.1787H80.3624V71.1304H82.1827ZM84.1538 81.1787V71.1304H87.9219C88.6939 71.1304 89.3415 71.2645 89.8649 71.5327C90.3915 71.8009 90.7889 72.1771 91.0571 72.6612C91.3286 73.142 91.4644 73.703 91.4644 74.3441C91.4644 74.9884 91.327 75.5478 91.0522 76.022C90.7807 76.4931 90.38 76.8578 89.8501 77.1162C89.3203 77.3713 88.6693 77.4989 87.8974 77.4989H85.2136V75.9877H87.6521C88.1035 75.9877 88.4731 75.9256 88.7609 75.8013C89.0488 75.6737 89.2614 75.4889 89.3988 75.2468C89.5394 75.0015 89.6097 74.7006 89.6097 74.3441C89.6097 73.9875 89.5394 73.6833 89.3988 73.4315C89.2581 73.1763 89.0439 72.9834 88.756 72.8525C88.4682 72.7184 88.0969 72.6514 87.6423 72.6514H85.9741V81.1787H84.1538ZM89.3448 76.6255L91.8323 81.1787H89.8011L87.3577 76.6255H89.3448ZM93.1399 71.1304H95.3674L98.3505 78.4115H98.4682L101.451 71.1304H103.679V81.1787H101.932V74.2754H101.839L99.0619 81.1492H97.7568L94.9798 74.2607H94.8866V81.1787H93.1399V71.1304ZM106.951 81.1787H105.008L108.546 71.1304H110.793L114.335 81.1787H112.393L109.709 73.1911H109.63L106.951 81.1787ZM107.015 77.2388H112.314V78.7009H107.015V77.2388Z" fill="url(#paint3_linear_3_83)"/>
<defs>
<filter id="filter0_d_3_83" x="0" y="0" width="155" height="138" filterUnits="userSpaceOnUse" color-interpolation-filters="sRGB">
<feFlood flood-opacity="0" result="BackgroundImageFix"/>
<feColorMatrix in="SourceAlpha" type="matrix" values="0 0 0 0 0 0 0 0 0 0 0 0 0 0 0 0 0 0 127 0" result="hardAlpha"/>
<feOffset dy="4"/>
<feGaussianBlur stdDeviation="10"/>
<feComposite in2="hardAlpha" operator="out"/>
<feColorMatrix type="matrix" values="0 0 0 0 0 0 0 0 0 0 0 0 0 0 0 0 0 0 0.2 0"/>
<feBlend mode="normal" in2="BackgroundImageFix" result="effect1_dropShadow_3_83"/>
<feBlend mode="normal" in="SourceGraphic" in2="effect1_dropShadow_3_83" result="shape"/>
</filter>
<linearGradient id="paint0_linear_3_83" x1="31.1239" y1="56.7505" x2="129.709" y2="16.1995" gradientUnits="userSpaceOnUse">
<stop stop-color="#E98F8E"/>
<stop offset="1" stop-color="#EEAE8C"/>
</linearGradient>
<linearGradient id="paint1_linear_3_83" x1="59.5213" y1="-132.603" x2="118.514" y2="-129.148" gradientUnits="userSpaceOnUse">
<stop stop-color="#8F2ADC"/>
<stop offset="1" stop-color="#D351B9"/>
</linearGradient>
<linearGradient id="paint2_linear_3_83" x1="31.1239" y1="78.6732" x2="85.1521" y2="21.1536" gradientUnits="userSpaceOnUse">
<stop stop-color="#E98F8E"/>
<stop offset="1" stop-color="#EEAE8C"/>
</linearGradient>
<linearGradient id="paint3_linear_3_83" x1="59.5213" y1="5.51372" x2="117.387" y2="14.2866" gradientUnits="userSpaceOnUse">
<stop stop-color="#8F2ADC"/>
<stop offset="1" stop-color="#D351B9"/>
</linearGradient>
</defs>
</svg>
